<?xml version="1.0" encoding="utf-8"?>
<!-- Generator: Adobe Illustrator 22.0.1, SVG Export Plug-In . SVG Version: 6.00 Build 0)  -->
<svg width="50" height="50" version="1.1" id="Modo_de_aislamiento" xmlns="http://www.w3.org/2000/svg" xmlns:xlink="http://www.w3.org/1999/xlink"
	 x="0px" y="0px" viewBox="0 0 50 50" style="enable-background:new 0 0 50 50;" xml:space="preserve">
<style type="text/css">
	.st0{fill:#FFFFFF;}
</style>
<path class="st0" d="M0.1,13.4C-0.5,10.5,1.3,7.6,4.2,7l32.4-6.9c2.9-0.6,5.7,1.2,6.4,4.1l1.6,7.4c-0.5-1.2-1-2.3-1.8-3.2
	c-1.1-1.3-2.4-2.3-3.9-2.9c-1.4-0.6-3-0.8-4.6-0.8c-1.6,0-3.1,0.2-4.6,0.5c-2,0.4-3.7,1-5.3,1.8C23,8,21.6,9,20.5,10.2
	c-1.1,1.3-1.8,2.7-2.2,4.4c-0.4,1.7-0.5,3.5-0.2,5.6c0.1,0.6,0.6,1,1.2,0.8l4-0.8c0.5-0.1,0.9-0.6,0.8-1.2c-0.4-2.5,0-4.2,1.1-5.5
	c1.2-1.4,2.9-2.3,5.3-2.8c1.1-0.2,2.2-0.4,3.2-0.4c1-0.1,1.8,0.1,2.5,0.4c0.7,0.3,1.4,0.7,1.9,1.4c0.5,0.6,0.9,1.5,1.2,2.7
	c0.2,0.8,0.2,1.4,0.1,1.8c-0.1,0.4-0.2,0.8-0.4,1c-0.2,0.3-0.6,0.5-1.1,0.7c-0.6,0.2-1.3,0.5-2.1,0.8c-2.1,0.7-4.2,1.4-6.2,2.2
	c-2.1,0.7-3.9,1.6-5.6,2.7c-1.6,1.1-2.9,2.5-3.7,4.2c-0.9,1.7-1,3.9-0.5,6.3c0.4,1.8,1,3.3,1.9,4.5c0.9,1.2,2.1,2.1,3.3,2.8
	c1.3,0.6,2.7,0.9,4.2,1c1.5,0.1,3.1,0,4.7-0.4c1.7-0.3,3.1-0.8,4.2-1.4c1.2-0.6,2.2-1.3,3.1-2.1c0.9-0.8,1.6-1.7,2.2-2.8
	c0.2-0.3,0.4-0.7,0.6-1.1c0.3,0.7,0.7,1.4,1.3,1.9c0.6,0.6,1.3,1,2.1,1.2c0.8,0.1,1.6,0.1,2.6-0.1c-0.2,2.3-1.8,4.4-4.2,4.9
	l-32.4,6.9c-2.9,0.6-5.7-1.2-6.4-4.1L0.1,13.4z M26.1,29.9c0.7-1,1.6-1.8,2.9-2.5c1.3-0.7,2.8-1.4,4.5-2c1.8-0.6,3.5-1.3,5.1-1.9
	c0.6-0.2,1.2-0.5,1.9-0.9l0.3-0.2l0.7,3.3c0.3,1.5,0.3,2.8,0,4.1c-0.3,1.2-0.8,2.4-1.6,3.4c-0.7,1-1.7,1.8-2.9,2.5
	c-1.2,0.7-2.5,1.2-3.9,1.5c-0.8,0.2-1.6,0.2-2.5,0.1c-0.8-0.1-1.6-0.3-2.2-0.6c-0.7-0.4-1.3-0.9-1.8-1.4c-0.4-0.6-0.8-1.3-0.9-2.2
	C25.4,31.6,25.6,30.6,26.1,29.9"/>
</svg>
